<svg width="59" height="70" viewBox="0 0 59 70" fill="none" xmlns="http://www.w3.org/2000/svg">
<path d="M7.75 0.25H51.25C53.1728 0.25 55.0169 1.01384 56.3765 2.37348C57.7362 3.73311 58.5 5.57718 58.5 7.5V72.75H0.5V7.5C0.5 5.57718 1.26384 3.73311 2.62348 2.37348C3.98311 1.01384 5.82718 0.25 7.75 0.25ZM7.75 65.5H22.25V51H36.75V65.5H51.25V7.5H7.75V65.5ZM33.125 14.75H44V25.625H33.125V14.75ZM15 32.875H25.875V43.75H15V32.875ZM33.125 32.875H44V43.75H33.125V32.875ZM15 14.75H25.875V25.625H15V14.75Z" fill="#0A3D62"/>
</svg>
