<svg width="30" height="30" viewBox="0 0 30 30" fill="none" xmlns="http://www.w3.org/2000/svg">
<path fill-rule="evenodd" clip-rule="evenodd" d="M2.5 6.25C2.5 5.91848 2.6317 5.60054 2.86612 5.36612C3.10054 5.1317 3.41848 5 3.75 5H26.25C26.5815 5 26.8995 5.1317 27.1339 5.36612C27.3683 5.60054 27.5 5.91848 27.5 6.25V22.5C27.5 22.8315 27.3683 23.1495 27.1339 23.3839C26.8995 23.6183 26.5815 23.75 26.25 23.75H3.75C3.41848 23.75 3.10054 23.6183 2.86612 23.3839C2.6317 23.1495 2.5 22.8315 2.5 22.5V6.25ZM10 26.3125C10 25.795 10.43 25.375 10.9412 25.375H19.0588C19.1822 25.3745 19.3045 25.3984 19.4187 25.4453C19.5328 25.4922 19.6366 25.5612 19.7241 25.6483C19.8115 25.7354 19.8809 25.8389 19.9283 25.9529C19.9756 26.0669 20 26.1891 20 26.3125V27.25H10V26.3125Z" fill="#A4C639"/>
</svg>
