<svg width="64" height="118" viewBox="0 0 64 118" fill="none" xmlns="http://www.w3.org/2000/svg">
<path d="M55.5267 0.833252H9.14005C6.92225 0.833252 4.79529 1.71427 3.22707 3.28249C1.65885 4.85071 0.777832 6.97767 0.777832 9.19547V119.167H20.5001V107.333H44.1667V119.167H63.8889V9.19547C63.8889 6.97767 63.0079 4.85071 61.4397 3.28249C59.8715 1.71427 57.7445 0.833252 55.5267 0.833252ZM20.5001 87.611H12.6112V79.7221H20.5001V87.611ZM20.5001 67.8888H12.6112V59.9999H20.5001V67.8888ZM20.5001 48.1666H12.6112V40.2777H20.5001V48.1666ZM20.5001 28.4444H12.6112V20.5555H20.5001V28.4444ZM36.2778 87.611H28.3889V79.7221H36.2778V87.611ZM36.2778 67.8888H28.3889V59.9999H36.2778V67.8888ZM36.2778 48.1666H28.3889V40.2777H36.2778V48.1666ZM36.2778 28.4444H28.3889V20.5555H36.2778V28.4444ZM52.0556 87.611H44.1667V79.7221H52.0556V87.611ZM52.0556 67.8888H44.1667V59.9999H52.0556V67.8888ZM52.0556 48.1666H44.1667V40.2777H52.0556V48.1666ZM52.0556 28.4444H44.1667V20.5555H52.0556V28.4444Z" fill="#0A3D62"/>
</svg>
