<svg width="60" height="60" viewBox="0 0 60 60" fill="none" xmlns="http://www.w3.org/2000/svg">
<rect x="2" y="2" width="56" height="56" rx="28" stroke="#0A3D62" stroke-width="4"/>
<path d="M35.5999 28.0123C35.1124 28.4998 34.2999 28.4998 33.8124 28.0123L28.2249 22.4373L19.4124 31.2373L18.5874 30.4498C17.8852 29.7466 17.4907 28.7935 17.4907 27.7998C17.4907 26.806 17.8852 25.8529 18.5874 25.1498L23.8874 19.8498C24.5905 19.1475 25.5437 18.7531 26.5374 18.7531C27.5312 18.7531 28.4843 19.1475 29.1874 19.8498L35.5999 26.2498C36.0874 26.7373 36.0874 27.5248 35.5999 28.0123ZM36.4749 25.3623C37.4499 26.3373 37.4499 27.9248 36.4749 28.8998C34.8874 30.4873 33.2124 29.1748 32.9374 28.8998L28.2374 24.1998L21.2749 31.1623C21.159 31.2779 21.0671 31.4153 21.0044 31.5665C20.9417 31.7177 20.9094 31.8798 20.9094 32.0435C20.9094 32.2072 20.9417 32.3693 21.0044 32.5205C21.0671 32.6718 21.159 32.8091 21.2749 32.9248C21.7624 33.4123 22.5499 33.4123 23.0499 32.9248L28.8249 27.1498L29.7124 28.0373L23.9374 33.8123C23.8215 33.9279 23.7296 34.0653 23.6669 34.2165C23.6042 34.3677 23.5719 34.5298 23.5719 34.6935C23.5719 34.8572 23.6042 35.0193 23.6669 35.1705C23.7296 35.3218 23.8215 35.4591 23.9374 35.5748C24.4249 36.0623 25.2124 36.0623 25.7124 35.5748L31.4874 29.7998L32.3749 30.6873L26.5999 36.4623C26.4842 36.578 26.3924 36.7154 26.3298 36.8666C26.2671 37.0178 26.2349 37.1798 26.2349 37.3435C26.2349 37.5072 26.2671 37.6692 26.3298 37.8204C26.3924 37.9716 26.4842 38.109 26.5999 38.2248C26.7156 38.3405 26.853 38.4323 27.0042 38.4949C27.1554 38.5576 27.3175 38.5898 27.4812 38.5898C27.6448 38.5898 27.8069 38.5576 27.9581 38.4949C28.1093 38.4323 28.2467 38.3405 28.3624 38.2248L34.1374 32.4498L35.0249 33.3373L29.2499 39.1123C29.1342 39.228 29.0424 39.3654 28.9798 39.5166C28.9171 39.6678 28.8849 39.8298 28.8849 39.9935C28.8849 40.1572 28.9171 40.3192 28.9798 40.4704C29.0424 40.6216 29.1342 40.759 29.2499 40.8748C29.4836 41.1085 29.8006 41.2398 30.1312 41.2398C30.2948 41.2398 30.4569 41.2075 30.6081 41.1449C30.7593 41.0823 30.8967 40.9905 31.0124 40.8748L41.4124 30.4498C42.1147 29.7466 42.5091 28.7935 42.5091 27.7998C42.5091 26.806 42.1147 25.8529 41.4124 25.1498L36.1124 19.8498C35.4224 19.16 34.4907 18.7663 33.5151 18.7523C32.5396 18.7383 31.597 19.1051 30.8874 19.7748L36.4749 25.3623Z" fill="#0A3D62"/>
</svg>
