<svg width="30" height="30" viewBox="0 0 30 30" fill="none" xmlns="http://www.w3.org/2000/svg">
<path d="M27.8972 6.6001H2.11278C1.28358 6.6001 0.60498 7.3543 0.60498 8.1001C0.60498 8.8459 1.28358 9.5995 2.11278 9.5995H2.47698V12.5995H27.5696V9.5995H27.8972C28.727 9.5995 29.405 8.8459 29.405 8.1001C29.405 7.3543 28.727 6.6001 27.8972 6.6001ZM15.005 11.1121C14.5886 11.1121 14.2514 10.7647 14.2514 10.3369C14.2514 9.9091 14.5886 9.5617 15.005 9.5617C15.422 9.5617 15.7586 9.9091 15.7586 10.3369C15.7586 10.7647 15.422 11.1121 15.005 11.1121ZM2.47698 18.5989H27.5696V13.8001H2.47698V18.5989ZM15.005 15.3745C15.422 15.3745 15.7586 15.7213 15.7586 16.1491C15.7586 16.5775 15.422 16.9243 15.005 16.9243C14.5886 16.9243 14.2514 16.5775 14.2514 16.1491C14.2508 15.7213 14.5886 15.3745 15.005 15.3745ZM2.47698 22.7371V26.2255C2.47698 26.6515 2.53038 27.0007 2.94498 27.0007H5.95938C6.37398 27.0007 6.56178 26.6515 6.56178 26.2255V23.9995H23.4848V26.2255C23.4848 26.6515 23.636 27.0007 24.05 27.0007H27.065C27.4784 27.0007 27.569 26.6515 27.569 26.2255V19.8001H2.47698V22.7371ZM15.005 21.1873C15.422 21.1873 15.7586 21.5347 15.7586 21.9619C15.7586 22.3909 15.422 22.7365 15.005 22.7365C14.5886 22.7365 14.2514 22.3909 14.2514 21.9619C14.2508 21.5353 14.5886 21.1873 15.005 21.1873Z" fill="#A4C639"/>
</svg>
