<svg width="30" height="30" viewBox="0 0 30 30" fill="none" xmlns="http://www.w3.org/2000/svg">
<path d="M27.1875 11.7188H25.3125V7.03125H27.1875C27.5605 7.03125 27.9181 6.88309 28.1819 6.61937C28.4456 6.35565 28.5938 5.99796 28.5938 5.625C28.5938 5.25204 28.4456 4.89435 28.1819 4.63063C27.9181 4.36691 27.5605 4.21875 27.1875 4.21875H24.8438C24.6254 3.92767 24.3424 3.69141 24.0169 3.52869C23.6915 3.36597 23.3326 3.28125 22.9688 3.28125H20.1562C19.7924 3.28125 19.4335 3.36597 19.1081 3.52869C18.7826 3.69141 18.4996 3.92767 18.2812 4.21875H16.875C13.5195 4.22247 10.3025 5.55709 7.92979 7.92979C5.55709 10.3025 4.22247 13.5195 4.21875 16.875V18.2812C3.92767 18.4996 3.69141 18.7826 3.52869 19.1081C3.36597 19.4335 3.28125 19.7924 3.28125 20.1562V22.9688C3.28125 23.3326 3.36597 23.6915 3.52869 24.0169C3.69141 24.3424 3.92767 24.6254 4.21875 24.8438V27.1875C4.21875 27.5605 4.36691 27.9181 4.63063 28.1819C4.89435 28.4456 5.25204 28.5938 5.625 28.5938C5.99796 28.5938 6.35565 28.4456 6.61937 28.1819C6.88309 27.9181 7.03125 27.5605 7.03125 27.1875V25.3125H11.7188V27.1875C11.7188 27.5605 11.8669 27.9181 12.1306 28.1819C12.3944 28.4456 12.752 28.5938 13.125 28.5938C13.498 28.5938 13.8556 28.4456 14.1194 28.1819C14.3831 27.9181 14.5312 27.5605 14.5312 27.1875V24.8438C14.8223 24.6254 15.0586 24.3424 15.2213 24.0169C15.384 23.6915 15.4688 23.3326 15.4688 22.9688V20.1562C15.4688 19.7924 15.384 19.4335 15.2213 19.1081C15.0586 18.7826 14.8223 18.4996 14.5312 18.2812V16.875C14.5312 16.2534 14.7782 15.6573 15.2177 15.2177C15.6573 14.7782 16.2534 14.5312 16.875 14.5312H18.2812C18.4996 14.8223 18.7826 15.0586 19.1081 15.2213C19.4335 15.384 19.7924 15.4688 20.1562 15.4688H22.9688C23.3326 15.4688 23.6915 15.384 24.0169 15.2213C24.3424 15.0586 24.6254 14.8223 24.8438 14.5312H27.1875C27.5605 14.5312 27.9181 14.3831 28.1819 14.1194C28.4456 13.8556 28.5938 13.498 28.5938 13.125C28.5938 12.752 28.4456 12.3944 28.1819 12.1306C27.9181 11.8669 27.5605 11.7188 27.1875 11.7188ZM12.6562 20.625V22.5H6.09375V20.625H12.6562ZM11.7188 16.875V17.8125H7.03125V16.875C7.03404 14.2651 8.07204 11.763 9.9175 9.9175C11.763 8.07204 14.2651 7.03404 16.875 7.03125H17.8125V11.7188H16.875C15.508 11.7203 14.1973 12.264 13.2307 13.2307C12.264 14.1973 11.7203 15.508 11.7188 16.875ZM20.625 6.09375H22.5V12.6562H20.625V6.09375Z" fill="#A4C639"/>
</svg>
