<svg width="30" height="30" viewBox="0 0 30 30" fill="none" xmlns="http://www.w3.org/2000/svg">
<path d="M15 13.75C14.6685 13.75 14.3505 13.8817 14.1161 14.1161C13.8817 14.3505 13.75 14.6685 13.75 15C13.75 15.3315 13.8817 15.6495 14.1161 15.8839C14.3505 16.1183 14.6685 16.25 15 16.25C15.3315 16.25 15.6495 16.1183 15.8839 15.8839C16.1183 15.6495 16.25 15.3315 16.25 15C16.25 14.6685 16.1183 14.3505 15.8839 14.1161C15.6495 13.8817 15.3315 13.75 15 13.75ZM15.625 2.5C21.25 2.5 21.3875 6.9625 18.4375 8.4375C17.2 9.05 16.65 10.3625 16.4125 11.525C17.0125 11.775 17.5375 12.1625 17.9375 12.6625C22.5625 10.1625 27.5375 11.15 27.5375 15.625C27.5375 21.25 23.075 21.375 21.6 18.4125C20.975 17.175 19.65 16.625 18.4875 16.3875C18.2375 16.9875 17.85 17.5 17.35 17.925C19.8375 22.5375 18.85 27.5 14.375 27.5C8.75 27.5 8.6375 23.025 11.5875 21.55C12.8125 20.9375 13.3625 19.6375 13.6125 18.4875C13 18.2375 12.4625 17.8375 12.0625 17.3375C7.45 19.8125 2.5 18.8375 2.5 14.375C2.5 8.75 6.95 8.6125 8.425 11.575C9.05 12.8125 10.3625 13.35 11.525 13.5875C11.7625 12.9875 12.1625 12.4625 12.675 12.0625C10.1875 7.45 11.175 2.5 15.625 2.5Z" fill="#A4C639"/>
</svg>
